<svg xmlns="http://www.w3.org/2000/svg" viewBox="0 0 236 30" width="236" height="30"><style>tspan { white-space:pre }.shp0 { fill: #4f4f4f } </style><path class="shp0" d="M11.05 28.03L9.46 28.03L-0.35 6.17L2.4 6.17L10.26 23.7L18.11 6.17L20.96 6.17L11.05 28.03Z" /><path class="shp0" d="M211.79 7.94C212.28 7.17 212.79 6.44 213.3 5.69C213.81 4.94 214.3 4.22 214.88 3.5C215.33 2.72 215.89 2.01 216.53 1.38C217.24 0.76 218.06 0.29 218.96 0L219.11 0.13C218.92 1.06 218.53 1.95 217.98 2.72C217.41 3.42 216.76 4.04 216.03 4.57C215.37 5.18 214.7 5.77 214.03 6.36C213.36 6.95 212.65 7.52 211.93 8.08L211.79 7.94Z" /><path fill-rule="evenodd" class="shp0" d="M17.89 28.03L25.89 11.12L27.44 11.12L35.51 28.03L32.88 28.03L30.83 23.74L22.51 23.74L20.51 28.03L17.89 28.03ZM23.59 21.5L29.75 21.5L26.69 15.02L23.59 21.5Z" /><path class="shp0" d="M37.87 28.03L37.87 11.12L40.34 11.12L40.34 25.64L52.03 25.64L52.03 28.07L37.87 28.03Z" /><path class="shp0" d="M54.83 28.03L54.83 11.12L69.61 11.12L69.61 13.64L57.3 13.64L57.3 17.86L65.38 17.86L65.38 20.29L57.3 20.29L57.3 25.64L70.3 25.64L70.3 28.07L54.83 28.03Z" /><path fill-rule="evenodd" class="shp0" d="M76.3 20.64L76.3 28.02L73.83 28.02L73.83 11.16L84.67 11.16C86.04 11.08 87.4 11.53 88.45 12.41C88.91 12.86 89.28 13.4 89.51 14C89.75 14.59 89.86 15.24 89.82 15.88C89.84 17.01 89.46 18.12 88.74 18.99C88.05 19.86 87.06 20.45 85.96 20.64L90.33 28.06L87.65 28.06L83.16 20.64L76.3 20.64ZM76.3 18.16L84.67 18.16C85.39 18.22 86.1 18.01 86.67 17.57C86.9 17.35 87.08 17.09 87.19 16.79C87.31 16.5 87.36 16.19 87.34 15.87C87.36 15.55 87.31 15.24 87.2 14.94C87.08 14.65 86.9 14.39 86.67 14.17C86.1 13.73 85.39 13.53 84.67 13.59L76.3 13.59L76.3 18.16Z" /><path class="shp0" d="M94.3 28.03L94.3 11.08L96.81 11.08L96.81 28.08L94.3 28.03Z" /><path class="shp0" d="M115.09 28.03L115.09 6.17L117.43 6.17L125.65 19.56L133.96 6.17L136.27 6.17L136.27 28.03L133.76 28.03L133.76 10.97L125.68 23.89L117.61 10.97L117.61 28.03L115.09 28.03Z" /><path fill-rule="evenodd" class="shp0" d="M138.8 28.03L146.8 11.12L148.35 11.12L156.42 28.03L153.79 28.03L151.79 23.74L143.47 23.74L141.47 28.03L138.8 28.03ZM144.5 21.5L150.66 21.5L147.6 15.02L144.5 21.5Z" /><path fill-rule="evenodd" class="shp0" d="M161.29 20.64L161.29 28.02L158.81 28.02L158.81 11.16L169.66 11.16C171.03 11.08 172.38 11.53 173.44 12.41C173.9 12.86 174.26 13.4 174.5 14C174.74 14.6 174.84 15.24 174.8 15.88C174.82 17.01 174.44 18.11 173.73 18.99C173.04 19.86 172.06 20.45 170.96 20.64L175.33 28.06L172.66 28.06L168.15 20.64L161.29 20.64ZM161.29 18.16L169.66 18.16C170.36 18.21 171.05 18 171.6 17.57C171.83 17.35 172.01 17.09 172.13 16.8C172.25 16.5 172.3 16.19 172.28 15.87C172.3 15.55 172.25 15.24 172.13 14.94C172.01 14.65 171.83 14.38 171.6 14.17C171.04 13.76 170.35 13.58 169.66 13.64L161.29 13.64L161.29 18.16Z" /><path class="shp0" d="M195.96 23.89C195.12 25.35 193.9 26.55 192.43 27.37C190.89 28.19 189.17 28.61 187.43 28.57C184.91 28.67 182.45 27.76 180.6 26.04C179.72 25.23 179.03 24.23 178.56 23.13C178.1 22.03 177.88 20.84 177.91 19.64C177.88 18.44 178.1 17.24 178.56 16.14C179.03 15.03 179.72 14.03 180.6 13.21C182.44 11.48 184.9 10.56 187.42 10.64C189.04 10.6 190.64 10.94 192.1 11.64C193.47 12.3 194.65 13.32 195.5 14.58L193.5 16.04C192.85 15.12 191.98 14.37 190.96 13.89C189.85 13.35 188.64 13.08 187.41 13.1C185.56 13.04 183.77 13.7 182.41 14.96C181.78 15.56 181.28 16.28 180.94 17.08C180.6 17.87 180.43 18.73 180.43 19.6C180.43 20.47 180.6 21.33 180.94 22.12C181.28 22.92 181.78 23.64 182.41 24.24C183.77 25.48 185.57 26.15 187.41 26.09C188.7 26.11 189.98 25.81 191.12 25.2C192.28 24.52 193.26 23.57 193.96 22.43L195.96 23.89Z" /><path fill-rule="evenodd" class="shp0" d="M208.33 28.57C205.78 28.66 203.3 27.74 201.42 26.01C200.54 25.2 199.85 24.21 199.38 23.12C198.91 22.02 198.68 20.83 198.71 19.64C198.68 18.44 198.9 17.25 199.37 16.14C199.83 15.04 200.53 14.04 201.41 13.23C203.36 11.6 205.81 10.71 208.35 10.71C210.89 10.71 213.34 11.6 215.29 13.23C216.17 14.05 216.86 15.04 217.32 16.14C217.78 17.25 218 18.44 217.96 19.64C217.99 20.84 217.77 22.04 217.3 23.14C216.83 24.25 216.13 25.24 215.25 26.06C213.36 27.77 210.88 28.67 208.33 28.57ZM208.33 26.09C210.22 26.17 212.06 25.51 213.48 24.26C214.11 23.66 214.61 22.94 214.96 22.13C215.3 21.33 215.47 20.47 215.47 19.6C215.47 18.73 215.3 17.87 214.96 17.07C214.61 16.26 214.11 15.54 213.48 14.94C212.07 13.69 210.23 13.03 208.34 13.1C206.46 13.02 204.62 13.68 203.22 14.94C202.59 15.54 202.09 16.27 201.75 17.07C201.41 17.87 201.24 18.73 201.24 19.6C201.24 20.47 201.41 21.33 201.75 22.13C202.09 22.93 202.59 23.66 203.22 24.26C204.62 25.51 206.45 26.16 208.33 26.09Z" /><path class="shp0" d="M222.03 28.03L222.03 11.12L223.32 11.12L233.32 23L233.32 11.12L235.74 11.12L235.74 28.03L234.45 28.03L224.45 16.19L224.45 28.03L222.03 28.03Z" /><path class="shp0" d="M222.03 28.03L222.03 11.12L223.32 11.12L233.32 23L233.32 11.12L235.74 11.12L235.74 28.03L234.45 28.03L224.45 16.19L224.45 28.03L222.03 28.03Z" /></svg>