<?xml version="1.0" standalone="no"?>
<!DOCTYPE svg PUBLIC "-//W3C//DTD SVG 20010904//EN"
 "http://www.w3.org/TR/2001/REC-SVG-20010904/DTD/svg10.dtd">
<svg version="1.0" xmlns="http://www.w3.org/2000/svg"
 width="100.000000pt" height="100.000000pt" viewBox="0 0 100.000000 100.000000"
 preserveAspectRatio="xMidYMid meet">
<metadata>
Created by potrace 1.16, written by Peter Selinger 2001-2019
</metadata>
<g transform="translate(0.000000,100.000000) scale(0.100000,-0.100000)"
fill="#000000" stroke="none">
<path d="M412 928 c-15 -15 -16 -85 0 -94 7 -5 5 -11 -7 -21 -13 -9 -51 -13
-118 -13 l-99 0 -34 -34 -34 -34 0 -122 c0 -118 -1 -123 -27 -154 -39 -47 -53
-88 -53 -160 0 -62 2 -67 38 -105 80 -84 231 -131 422 -131 191 0 342 47 422
131 36 38 38 43 38 105 0 72 -14 113 -53 160 -26 31 -27 36 -27 154 l0 122
-34 34 -34 34 -99 0 c-67 0 -105 4 -118 13 -12 10 -14 16 -7 21 16 9 15 79 0
94 -7 7 -42 12 -88 12 -46 0 -81 -5 -88 -12z m368 -179 c43 -16 60 -59 59
-151 l-1 -73 -19 40 c-10 22 -19 60 -19 85 0 26 -5 51 -12 58 -17 17 -559 17
-576 0 -7 -7 -12 -32 -12 -57 0 -26 -9 -64 -19 -86 l-19 -40 -1 71 c-1 92 13
132 53 150 41 17 516 20 566 3z m-32 -81 c7 -7 12 -34 12 -60 0 -62 19 -98 88
-171 52 -54 56 -61 60 -115 4 -52 1 -61 -23 -90 -15 -18 -49 -44 -75 -57 l-48
-24 10 36 c5 20 8 69 6 107 -3 57 -12 88 -46 162 -23 50 -42 102 -42 116 0 31
-23 63 -38 54 -26 -16 -13 -95 33 -195 54 -118 60 -187 23 -261 -28 -55 -46
-60 -208 -60 -162 0 -180 5 -207 60 -38 75 -32 145 22 260 46 97 60 180 33
196 -15 9 -38 -23 -38 -54 0 -14 -19 -66 -42 -116 -34 -74 -43 -105 -46 -162
-2 -38 1 -87 6 -107 l10 -36 -48 24 c-26 13 -60 39 -75 57 -24 29 -27 38 -23
90 4 54 8 63 50 106 76 78 98 118 98 176 0 29 5 57 12 64 17 17 479 17 496 0z"/>
</g>
</svg>
