<?xml version="1.0" standalone="no"?>
<!DOCTYPE svg PUBLIC "-//W3C//DTD SVG 20010904//EN"
 "http://www.w3.org/TR/2001/REC-SVG-20010904/DTD/svg10.dtd">
<svg version="1.0" xmlns="http://www.w3.org/2000/svg"
 width="100.000000pt" height="100.000000pt" viewBox="0 0 100.000000 100.000000"
 preserveAspectRatio="xMidYMid meet">
<metadata>
Created by potrace 1.16, written by Peter Selinger 2001-2019
</metadata>
<g transform="translate(0.000000,100.000000) scale(0.100000,-0.100000)"
fill="#000000" stroke="none">
<path d="M311 944 c-12 -9 -31 -30 -41 -47 -11 -18 -33 -35 -52 -41 -39 -13
-74 -73 -64 -111 6 -22 12 -25 49 -25 23 0 53 7 65 16 20 14 24 14 44 0 13 -9
43 -16 71 -16 42 0 54 5 83 34 30 30 34 40 34 86 0 46 -4 56 -34 86 -29 29
-41 34 -83 34 -29 0 -58 -7 -72 -16z m119 -54 c43 -43 11 -120 -50 -120 -38 0
-70 32 -70 70 0 38 32 70 70 70 17 0 39 -9 50 -20z"/>
<path d="M640 730 c0 -32 -3 -33 -72 -30 -23 1 -39 -4 -45 -13 -4 -8 -19 -17
-33 -19 -17 -2 -26 -10 -28 -25 -3 -20 1 -23 27 -23 22 0 31 -5 31 -17 0 -9 7
-45 16 -79 l15 -61 -42 -124 c-23 -71 -42 -145 -43 -174 l-1 -49 40 -8 c52 -9
258 -9 310 0 l40 8 -1 49 c-1 29 -20 103 -43 173 l-42 124 18 79 c17 76 19 79
46 79 24 0 28 4 25 23 -2 15 -11 23 -28 25 -14 2 -29 11 -33 19 -6 9 -22 14
-45 13 -69 -3 -72 -2 -72 30 0 23 -4 30 -20 30 -16 0 -20 -7 -20 -30z m108
-370 c13 -36 31 -95 42 -132 l18 -66 -26 -7 c-33 -8 -211 -8 -244 0 -25 7 -26
7 -13 53 6 26 24 85 40 132 l27 85 67 0 66 0 23 -65z"/>
<path d="M279 680 c-20 -11 -48 -33 -62 -50 -34 -39 -70 -159 -71 -230 -1 -48
2 -56 21 -65 17 -7 22 -17 20 -40 -2 -29 -1 -30 46 -33 l47 -3 0 -93 c0 -119
6 -126 109 -123 57 2 76 6 85 19 13 22 5 30 -36 32 l-33 2 -3 82 -3 82 31 0
c23 0 30 4 30 20 0 19 -7 20 -110 20 -60 0 -110 1 -110 3 0 1 14 49 30 107 37
129 38 153 8 148 -18 -2 -26 -19 -49 -98 -19 -67 -29 -90 -34 -77 -4 10 0 46
10 80 38 140 81 187 170 187 45 0 74 17 75 43 0 16 -135 6 -171 -13z"/>
</g>
</svg>
