<svg xmlns="http://www.w3.org/2000/svg" width="236" height="30"><style>.shp0{fill:#4f4f4f}</style><path class="shp0" d="M11.05 28.03H9.46L-.35 6.17H2.4l7.86 17.53 7.85-17.53h2.85l-9.91 21.86zM211.79 7.94c.49-.77 1-1.5 1.51-2.25s1-1.47 1.58-2.19c.45-.78 1.01-1.49 1.65-2.12.71-.62 1.53-1.09 2.43-1.38l.15.13a6.83 6.83 0 01-1.13 2.59c-.57.7-1.22 1.32-1.95 1.85-.66.61-1.33 1.2-2 1.79-.67.59-1.38 1.16-2.1 1.72l-.14-.14z"/><path fill-rule="evenodd" class="shp0" d="M17.89 28.03l8-16.91h1.55l8.07 16.91h-2.63l-2.05-4.29h-8.32l-2 4.29h-2.62zm5.7-6.53h6.16l-3.06-6.48-3.1 6.48z"/><path class="shp0" d="M37.87 28.03V11.12h2.47v14.52h11.69v2.43l-14.16-.04zm16.96 0V11.12h14.78v2.52H57.3v4.22h8.08v2.43H57.3v5.35h13v2.43l-15.47-.04z"/><path fill-rule="evenodd" class="shp0" d="M76.3 20.64v7.38h-2.47V11.16h10.84c1.37-.08 2.73.37 3.78 1.25.46.45.83.99 1.06 1.59.24.59.35 1.24.31 1.88.02 1.13-.36 2.24-1.08 3.11-.69.87-1.68 1.46-2.78 1.65l4.37 7.42h-2.68l-4.49-7.42H76.3zm0-2.48h8.37c.72.06 1.43-.15 2-.59.23-.22.41-.48.52-.78.12-.29.17-.6.15-.92.02-.32-.03-.63-.14-.93-.12-.29-.3-.55-.53-.77-.57-.44-1.28-.64-2-.58H76.3v4.57z"/><path class="shp0" d="M94.3 28.03V11.08h2.51v17l-2.51-.05zm20.79 0V6.17h2.34l8.22 13.39 8.31-13.39h2.31v21.86h-2.51V10.97l-8.08 12.92-8.07-12.92v17.06h-2.52z"/><path fill-rule="evenodd" class="shp0" d="M138.8 28.03l8-16.91h1.55l8.07 16.91h-2.63l-2-4.29h-8.32l-2 4.29h-2.67zm5.7-6.53h6.16l-3.06-6.48-3.1 6.48zm16.79-.86v7.38h-2.48V11.16h10.85c1.37-.08 2.72.37 3.78 1.25.46.45.82.99 1.06 1.59.24.6.34 1.24.3 1.88.02 1.13-.36 2.23-1.07 3.11-.69.87-1.67 1.46-2.77 1.65l4.37 7.42h-2.67l-4.51-7.42h-6.86zm0-2.48h8.37c.7.05 1.39-.16 1.94-.59.23-.22.41-.48.53-.77.12-.3.17-.61.15-.93.02-.32-.03-.63-.15-.93-.12-.29-.3-.56-.53-.77-.56-.41-1.25-.59-1.94-.53h-8.37v4.52z"/><path class="shp0" d="M195.96 23.89a9.289 9.289 0 01-3.53 3.48c-1.54.82-3.26 1.24-5 1.2-2.52.1-4.98-.81-6.83-2.53a8.477 8.477 0 01-2.04-2.91c-.46-1.1-.68-2.29-.65-3.49-.03-1.2.19-2.4.65-3.5a8.555 8.555 0 012.04-2.93 9.52 9.52 0 016.82-2.57c1.62-.04 3.22.3 4.68 1a8.63 8.63 0 013.4 2.94l-2 1.46a6.529 6.529 0 00-2.54-2.15 7.806 7.806 0 00-3.55-.79c-1.85-.06-3.64.6-5 1.86a6.363 6.363 0 00-1.98 4.64 6.377 6.377 0 001.98 4.64 7.097 7.097 0 005 1.85c1.29.02 2.57-.28 3.71-.89a8.187 8.187 0 002.84-2.77l2 1.46z"/><path fill-rule="evenodd" class="shp0" d="M208.33 28.57c-2.55.09-5.03-.83-6.91-2.56-.88-.81-1.57-1.8-2.04-2.89-.47-1.1-.7-2.29-.67-3.48-.03-1.2.19-2.39.66-3.5.46-1.1 1.16-2.1 2.04-2.91 1.95-1.63 4.4-2.52 6.94-2.52s4.99.89 6.94 2.52a8.41 8.41 0 012.03 2.91c.46 1.11.68 2.3.64 3.5.03 1.2-.19 2.4-.66 3.5a8.543 8.543 0 01-2.05 2.92 9.737 9.737 0 01-6.92 2.51zm0-2.48c1.89.08 3.73-.58 5.15-1.83.63-.6 1.13-1.32 1.48-2.13.34-.8.51-1.66.51-2.53 0-.87-.17-1.73-.51-2.53-.35-.81-.85-1.53-1.48-2.13a7.337 7.337 0 00-5.14-1.84c-1.88-.08-3.72.58-5.12 1.84-.63.6-1.13 1.33-1.47 2.13-.34.8-.51 1.66-.51 2.53 0 .87.17 1.73.51 2.53.34.8.84 1.53 1.47 2.13 1.4 1.25 3.23 1.9 5.11 1.83z"/><path class="shp0" d="M222.03 28.03V11.12h1.29l10 11.88V11.12h2.42v16.91h-1.29l-10-11.84v11.84h-2.42z"/><path class="shp0" d="M222.03 28.03V11.12h1.29l10 11.88V11.12h2.42v16.91h-1.29l-10-11.84v11.84h-2.42z"/></svg>