<svg version="1.0" xmlns="http://www.w3.org/2000/svg" width="133.333" height="133.333" viewBox="0 0 100 100"><path d="M41.2 7.2c-1.5 1.5-1.6 8.5 0 9.4.7.5.5 1.1-.7 2.1-1.3.9-5.1 1.3-11.8 1.3h-9.9l-3.4 3.4-3.4 3.4V39c0 11.8-.1 12.3-2.7 15.4-3.9 4.7-5.3 8.8-5.3 16 0 6.2.2 6.7 3.8 10.5C15.8 89.3 30.9 94 50 94s34.2-4.7 42.2-13.1c3.6-3.8 3.8-4.3 3.8-10.5 0-7.2-1.4-11.3-5.3-16C88.1 51.3 88 50.8 88 39V26.8l-3.4-3.4-3.4-3.4h-9.9c-6.7 0-10.5-.4-11.8-1.3-1.2-1-1.4-1.6-.7-2.1 1.6-.9 1.5-7.9 0-9.4C58.1 6.5 54.6 6 50 6c-4.6 0-8.1.5-8.8 1.2zM78 25.1c4.3 1.6 6 5.9 5.9 15.1l-.1 7.3-1.9-4c-1-2.2-1.9-6-1.9-8.5 0-2.6-.5-5.1-1.2-5.8-1.7-1.7-55.9-1.7-57.6 0-.7.7-1.2 3.2-1.2 5.7 0 2.6-.9 6.4-1.9 8.6l-1.9 4-.1-7.1c-.1-9.2 1.3-13.2 5.3-15 4.1-1.7 51.6-2 56.6-.3zm-3.2 8.1c.7.7 1.2 3.4 1.2 6 0 6.2 1.9 9.8 8.8 17.1 5.2 5.4 5.6 6.1 6 11.5.4 5.2.1 6.1-2.3 9-1.5 1.8-4.9 4.4-7.5 5.7l-4.8 2.4 1-3.6c.5-2 .8-6.9.6-10.7-.3-5.7-1.2-8.8-4.6-16.2-2.3-5-4.2-10.2-4.2-11.6 0-3.1-2.3-6.3-3.8-5.4-2.6 1.6-1.3 9.5 3.3 19.5 5.4 11.8 6 18.7 2.3 26.1-2.8 5.5-4.6 6-20.8 6-16.2 0-18-.5-20.7-6-3.8-7.5-3.2-14.5 2.2-26 4.6-9.7 6-18 3.3-19.6-1.5-.9-3.8 2.3-3.8 5.4 0 1.4-1.9 6.6-4.2 11.6-3.4 7.4-4.3 10.5-4.6 16.2-.2 3.8.1 8.7.6 10.7l1 3.6-4.8-2.4c-2.6-1.3-6-3.9-7.5-5.7-2.4-2.9-2.7-3.8-2.3-9 .4-5.4.8-6.3 5-10.6 7.6-7.8 9.8-11.8 9.8-17.6 0-2.9.5-5.7 1.2-6.4 1.7-1.7 47.9-1.7 49.6 0z"/></svg>