<svg version="1.0" xmlns="http://www.w3.org/2000/svg" width="133.333" height="133.333" viewBox="0 0 100 100"><path d="M31.1 5.6c-1.2.9-3.1 3-4.1 4.7-1.1 1.8-3.3 3.5-5.2 4.1-3.9 1.3-7.4 7.3-6.4 11.1.6 2.2 1.2 2.5 4.9 2.5 2.3 0 5.3-.7 6.5-1.6 2-1.4 2.4-1.4 4.4 0 1.3.9 4.3 1.6 7.1 1.6 4.2 0 5.4-.5 8.3-3.4 3-3 3.4-4 3.4-8.6s-.4-5.6-3.4-8.6C43.7 4.5 42.5 4 38.3 4c-2.9 0-5.8.7-7.2 1.6zM43 11c4.3 4.3 1.1 12-5 12-3.8 0-7-3.2-7-7s3.2-7 7-7c1.7 0 3.9.9 5 2zm21 16c0 3.2-.3 3.3-7.2 3-2.3-.1-3.9.4-4.5 1.3-.4.8-1.9 1.7-3.3 1.9-1.7.2-2.6 1-2.8 2.5-.3 2 .1 2.3 2.7 2.3 2.2 0 3.1.5 3.1 1.7 0 .9.7 4.5 1.6 7.9l1.5 6.1-4.2 12.4c-2.3 7.1-4.2 14.5-4.3 17.4l-.1 4.9 4 .8c5.2.9 25.8.9 31 0l4-.8-.1-4.9c-.1-2.9-2-10.3-4.3-17.3l-4.2-12.4 1.8-7.9c1.7-7.6 1.9-7.9 4.6-7.9 2.4 0 2.8-.4 2.5-2.3-.2-1.5-1.1-2.3-2.8-2.5-1.4-.2-2.9-1.1-3.3-1.9-.6-.9-2.2-1.4-4.5-1.3-6.9.3-7.2.2-7.2-3 0-2.3-.4-3-2-3s-2 .7-2 3zm10.8 37c1.3 3.6 3.1 9.5 4.2 13.2l1.8 6.6-2.6.7c-3.3.8-21.1.8-24.4 0-2.5-.7-2.6-.7-1.3-5.3.6-2.6 2.4-8.5 4-13.2l2.7-8.5h13.3l2.3 6.5z"/><path d="M27.9 32c-2 1.1-4.8 3.3-6.2 5-3.4 3.9-7 15.9-7.1 23-.1 4.8.2 5.6 2.1 6.5 1.7.7 2.2 1.7 2 4-.2 2.9-.1 3 4.6 3.3l4.7.3v9.3c0 11.9.6 12.6 10.9 12.3 5.7-.2 7.6-.6 8.5-1.9 1.3-2.2.5-3-3.6-3.2l-3.3-.2-.3-8.2-.3-8.2H43c2.3 0 3-.4 3-2 0-1.9-.7-2-11-2-6 0-11-.1-11-.3 0-.1 1.4-4.9 3-10.7 3.7-12.9 3.8-15.3.8-14.8-1.8.2-2.6 1.9-4.9 9.8-1.9 6.7-2.9 9-3.4 7.7-.4-1 0-4.6 1-8 3.8-14 8.1-18.7 17-18.7 4.5 0 7.4-1.7 7.5-4.3 0-1.6-13.5-.6-17.1 1.3z"/></svg>