<svg xmlns="http://www.w3.org/2000/svg" width="30.375" height="30.37"><path data-name="Скидка" d="M15.195 0A15.185 15.185 0 11.015 15.18 15.182 15.182 0 0115.195 0z" fill-rule="evenodd" fill="#d01345"/><path data-name="%" d="M11.317 15.54a3.054 3.054 0 001.864-.58 3.731 3.731 0 001.227-1.53 5.043 5.043 0 00.434-2.1 2.886 2.886 0 00-.7-2.06 2.478 2.478 0 00-1.9-.75 3.123 3.123 0 00-1.855.57 3.764 3.764 0 00-1.237 1.53 5.118 5.118 0 00-.434 2.11 2.9 2.9 0 00.7 2.06 2.477 2.477 0 001.9.75zm-2.474 5.99h1.514l11.3-12.92h-1.482zm2.566-7.03a1.347 1.347 0 01-1.1-.48 2.113 2.113 0 01-.4-1.38 4.163 4.163 0 01.258-1.45 2.882 2.882 0 01.766-1.18 1.77 1.77 0 011.209-.46 1.348 1.348 0 011.1.48 2.144 2.144 0 01.4 1.39 4.256 4.256 0 01-.258 1.45 2.922 2.922 0 01-.766 1.17 1.725 1.725 0 01-1.209.46zm6.867 7.15a3.161 3.161 0 001.874-.58 3.634 3.634 0 001.225-1.53 5.136 5.136 0 00.425-2.1 2.886 2.886 0 00-.7-2.06 2.455 2.455 0 00-1.883-.75 3.111 3.111 0 00-1.864.57 3.793 3.793 0 00-1.227 1.53 5.085 5.085 0 00-.434 2.11 2.9 2.9 0 00.692 2.07 2.477 2.477 0 001.892.74zm.092-1.04a1.354 1.354 0 01-1.089-.48 2.081 2.081 0 01-.406-1.38 4.2 4.2 0 01.258-1.45 2.782 2.782 0 01.766-1.17 1.733 1.733 0 011.209-.47 1.348 1.348 0 011.1.48 2.144 2.144 0 01.4 1.39 4.253 4.253 0 01-.258 1.45 2.921 2.921 0 01-.766 1.17 1.725 1.725 0 01-1.209.46z" fill="#fff" fill-rule="evenodd"/></svg>