<svg id="Скидка" xmlns="http://www.w3.org/2000/svg" width="30.375" height="30.37" viewBox="0 0 30.375 30.37">
  <metadata><?xpacket begin="﻿" id="W5M0MpCehiHzreSzNTczkc9d"?>
<x:xmpmeta xmlns:x="adobe:ns:meta/" x:xmptk="Adobe XMP Core 5.6-c142 79.160924, 2017/07/13-01:06:39        ">
   <rdf:RDF xmlns:rdf="http://www.w3.org/1999/02/22-rdf-syntax-ns#">
      <rdf:Description rdf:about=""/>
   </rdf:RDF>
</x:xmpmeta>
                                                                                                    
                                                                                                    
                                                                                                    
                                                                                                    
                                                                                                    
                                                                                                    
                                                                                                    
                                                                                                    
                                                                                                    
                                                                                                    
                                                                                                    
                                                                                                    
                                                                                                    
                                                                                                    
                                                                                                    
                                                                                                    
                                                                                                    
                                                                                                    
                                                                                                    
                                                                                                    
                           
<?xpacket end="w"?></metadata>
<defs>
    <style>
      .cls-1 {
        fill: #d01345;
      }

      .cls-1, .cls-2 {
        fill-rule: evenodd;
      }

      .cls-2 {
        fill: #fff;
      }
    </style>
  </defs>
  <path id="Скидка-2" data-name="Скидка" class="cls-1" d="M35.82,1479.41a15.185,15.185,0,1,1-15.18,15.18A15.182,15.182,0,0,1,35.82,1479.41Z" transform="translate(-20.625 -1479.41)"/>
  <path id="_" data-name="%" class="cls-2" d="M31.942,1494.95a3.054,3.054,0,0,0,1.864-.58,3.731,3.731,0,0,0,1.227-1.53,5.043,5.043,0,0,0,.434-2.1,2.886,2.886,0,0,0-.7-2.06,2.478,2.478,0,0,0-1.9-.75,3.123,3.123,0,0,0-1.855.57,3.764,3.764,0,0,0-1.237,1.53,5.118,5.118,0,0,0-.434,2.11,2.9,2.9,0,0,0,.7,2.06,2.477,2.477,0,0,0,1.9.75h0Zm-2.474,5.99h1.514l11.3-12.92H40.8Zm2.566-7.03a1.347,1.347,0,0,1-1.1-.48,2.113,2.113,0,0,1-.4-1.38,4.163,4.163,0,0,1,.258-1.45,2.882,2.882,0,0,1,.766-1.18,1.77,1.77,0,0,1,1.209-.46,1.348,1.348,0,0,1,1.1.48,2.144,2.144,0,0,1,.4,1.39,4.256,4.256,0,0,1-.258,1.45,2.922,2.922,0,0,1-.766,1.17,1.725,1.725,0,0,1-1.209.46h0Zm6.867,7.15a3.161,3.161,0,0,0,1.874-.58A3.634,3.634,0,0,0,42,1498.95a5.136,5.136,0,0,0,.425-2.1,2.886,2.886,0,0,0-.7-2.06,2.455,2.455,0,0,0-1.883-.75,3.111,3.111,0,0,0-1.864.57,3.793,3.793,0,0,0-1.227,1.53,5.085,5.085,0,0,0-.434,2.11,2.9,2.9,0,0,0,.692,2.07,2.477,2.477,0,0,0,1.892.74h0Zm0.092-1.04a1.354,1.354,0,0,1-1.089-.48,2.081,2.081,0,0,1-.406-1.38,4.2,4.2,0,0,1,.258-1.45,2.782,2.782,0,0,1,.766-1.17,1.733,1.733,0,0,1,1.209-.47,1.348,1.348,0,0,1,1.1.48,2.144,2.144,0,0,1,.4,1.39,4.253,4.253,0,0,1-.258,1.45,2.921,2.921,0,0,1-.766,1.17,1.725,1.725,0,0,1-1.209.46h0Z" transform="translate(-20.625 -1479.41)"/>
</svg>
